<?xml version="1.0" encoding="UTF-8"?> <svg xmlns="http://www.w3.org/2000/svg" viewBox="0 0 86 118.5"><defs><style>.cls-1{isolation:isolate;}.cls-2{fill:none;stroke:gray;stroke-linecap:round;stroke-linejoin:round;stroke-width:4px;}.cls-3{fill:#e62986;mix-blend-mode:multiply;}</style></defs><title>Glucometro</title><g class="cls-1"><g id="Capa_1" data-name="Capa 1"><path class="cls-2" d="M576,1323v7c17-4.93,30-20.75,30-39.52v-51.73c0-4.32-3.12-6.71-7.43-6.71H532c-4.32,0-8,2.39-8,6.71v51.73c0,18.77,12,34.59,29,39.52v-7" transform="translate(-522 -1230)"></path><rect class="cls-2" x="37.39" y="92.96" width="11.66" height="23.54" rx="2.8" ry="2.8"></rect><rect class="cls-3" x="37.47" y="92.96" width="11.66" height="23.54" rx="2.8" ry="2.8"></rect><line class="cls-2" x1="43.53" y1="65.61" x2="43.53" y2="79.99"></line><rect class="cls-2" x="16.23" y="14.37" width="54.6" height="39.32" rx="5.16" ry="5.16"></rect><line class="cls-2" x1="22.94" y1="31.28" x2="22.94" y2="36.79"></line><line class="cls-2" x1="30.54" y1="29.43" x2="30.54" y2="38.64"></line><line class="cls-2" x1="64.12" y1="36.79" x2="64.12" y2="31.28"></line><line class="cls-2" x1="56.52" y1="38.64" x2="56.52" y2="29.43"></line><path class="cls-2" d="M570.54,1262.6l-5-8.67-5,8.67c-1.07,1.73-2.1,3.4-1.86,5.55a6.91,6.91,0,0,0,13.77-.8C572.44,1265.51,571.42,1264.09,570.54,1262.6Z" transform="translate(-522 -1230)"></path><path class="cls-3" d="M570.54,1262.6l-5-8.67-5,8.67c-1.07,1.73-2.1,3.4-1.86,5.55a6.91,6.91,0,0,0,13.77-.8C572.44,1265.51,571.42,1264.09,570.54,1262.6Z" transform="translate(-522 -1230)"></path><rect class="cls-2" x="20.73" y="65.61" width="45.61" height="14.38" rx="7.19" ry="7.19"></rect><rect class="cls-3" x="20.73" y="65.61" width="45.61" height="14.38" rx="7.19" ry="7.19"></rect></g></g></svg> 