<?xml version="1.0" encoding="UTF-8"?> <svg xmlns="http://www.w3.org/2000/svg" viewBox="0 0 102.7 114.8"><defs><style>.cls-1{isolation:isolate;}.cls-2{fill:gray;}.cls-3{mix-blend-mode:multiply;}.cls-4{fill:#e62986;}</style></defs><title>Orientaciones</title><g class="cls-1"><g id="Capa_1" data-name="Capa 1"><path class="cls-2" d="M895.2,1258.8l-0.3-.3-21.6-25.5-0.6-.7a1.6,1.6,0,0,0-1.2-.6H802c-4.9,0-9,4.7-9,10.6v93.7c0,5.8,4,10.6,9,10.6h84.8c4.9,0,9-4.7,9-10.6v-75.6A2.3,2.3,0,0,0,895.2,1258.8Zm-5.7-.9H879c-2.9,0-5.2-2.8-5.2-6.1v-12.4Zm-2.7,84.5H802c-3,0-5.5-2.9-5.5-6.5v-93.7c0-3.6,2.5-6.5,5.5-6.5h68.3v16c0,5.7,3.9,10.3,8.7,10.3h13.2v73.9C892.2,1339.5,889.7,1342.4,886.7,1342.4Z" transform="translate(-793 -1231.7)"></path><path class="cls-2" d="M813.3,1275.6c-3.3,0-6,3.2-6,7.1s2.7,7.1,6,7.1,6-3.2,6-7.1S816.6,1275.6,813.3,1275.6Zm0,10a3,3,0,1,1,2.5-2.9A2.8,2.8,0,0,1,813.3,1285.6Z" transform="translate(-793 -1231.7)"></path><path class="cls-2" d="M826.3,1284.7h4.2a2.1,2.1,0,0,0,0-4.1h-4.2A2.1,2.1,0,0,0,826.3,1284.7Z" transform="translate(-793 -1231.7)"></path><path class="cls-2" d="M838.2,1284.7h29.2a2.1,2.1,0,0,0,0-4.1H838.2A2.1,2.1,0,0,0,838.2,1284.7Z" transform="translate(-793 -1231.7)"></path><path class="cls-2" d="M813.3,1298.1c-3.3,0-6,3.2-6,7.1s2.7,7.1,6,7.1,6-3.2,6-7.1S816.6,1298.1,813.3,1298.1Zm0,10a3,3,0,1,1,2.5-2.9A2.8,2.8,0,0,1,813.3,1308.2Z" transform="translate(-793 -1231.7)"></path><path class="cls-2" d="M877.8,1303.3H853.6a2.1,2.1,0,0,0,0,4.1h24.2A2.1,2.1,0,0,0,877.8,1303.3Z" transform="translate(-793 -1231.7)"></path><path class="cls-2" d="M847.6,1305.4a1.9,1.9,0,0,0-1.7-2.1H826.3a2.1,2.1,0,0,0,0,4.1h19.6A1.9,1.9,0,0,0,847.6,1305.4Z" transform="translate(-793 -1231.7)"></path><path class="cls-2" d="M875.4,1327.5l-1.7.2a4.9,4.9,0,0,1-3.4-1.2l-0.2-.2a8.4,8.4,0,0,0-5.4-2.1h-0.1a8.3,8.3,0,0,0-5.6,2.1l-0.2.2a5.3,5.3,0,0,1-6.9,0l-0.2-.2a8.4,8.4,0,0,0-5.4-2.1H846a2.1,2.1,0,0,0,0,4.1,4.9,4.9,0,0,1,3.4,1.2l0.2,0.2a8.4,8.4,0,0,0,5.4,2.1h0.3a8.4,8.4,0,0,0,5.4-2.1l0.2-.2a5.3,5.3,0,0,1,6.9,0l0.2,0.2a8.4,8.4,0,0,0,5.4,2.1h0.1a8.2,8.2,0,0,0,2.6-.4,2.1,2.1,0,0,0,1.2-2.5A1.8,1.8,0,0,0,875.4,1327.5Z" transform="translate(-793 -1231.7)"></path><path class="cls-2" d="M882.9,1324.2a2.1,2.1,0,0,0,0,4.1h0A2.1,2.1,0,0,0,882.9,1324.2Z" transform="translate(-793 -1231.7)"></path><g class="cls-3"><path class="cls-4" d="M871.6,1251.6c0,4.7,3.3,8.6,7.2,8.6h15.3l-22.6-26.7v18.1Z" transform="translate(-793 -1231.7)"></path></g><g class="cls-3"><ellipse class="cls-4" cx="20.3" cy="51" rx="4.3" ry="5"></ellipse></g><g class="cls-3"><ellipse class="cls-4" cx="20.3" cy="73.6" rx="4.3" ry="5"></ellipse></g></g></g></svg> 